<?xml version="1.0" encoding="utf-8"?>
<!-- Generator: Adobe Illustrator 22.0.1, SVG Export Plug-In . SVG Version: 6.00 Build 0)  -->
<svg fill="#FFFFFF" version="1.1" id="Layer_1" xmlns="http://www.w3.org/2000/svg" xmlns:xlink="http://www.w3.org/1999/xlink" x="0px" y="0px"
	 viewBox="0 0 128 128" style="enable-background:new 0 0 128 128;" xml:space="preserve">
<style type="text/css">
	.st0{fill:#FFFFFF;}
	.st1{fill:#E4E4E7;}
	.st2{fill:none;stroke:#444B54;stroke-width:6;stroke-linecap:round;stroke-linejoin:round;stroke-miterlimit:10;}
	.st3{fill:#AFAFBC;}
	.st4{fill:#EAD063;}
	.st5{fill:#242426;}
	.st6{fill:#F9DED4;}
	.st7{fill:#D8AC9E;}
	.st8{fill:#FFD0FF;}
	.st9{fill:#6575C1;}
	.st10{fill:#786F74;}
	.st11{fill:#9B9BA5;}
	.st12{fill:#FFD2EA;}
	.st13{fill:#B78BA4;}
	.st14{fill:#444B54;}
	.st15{fill:#5D5D8C;}
	.st16{fill:none;stroke:#FFFFFF;stroke-width:6;stroke-linecap:round;stroke-linejoin:round;stroke-miterlimit:10;}
</style>
<g>
	<path d="M110.1,32.7c-29.7-11.9-62.5-11.9-92.2,0c-1.5,0.6-2.3,2.4-1.7,3.9c0.6,1.5,2.4,2.3,3.9,1.7c28.3-11.3,59.5-11.3,87.8,0
		c0.4,0.1,0.7,0.2,1.1,0.2c1.2,0,2.3-0.7,2.8-1.9C112.4,35,111.7,33.3,110.1,32.7z"/>
	<path d="M104.9,45.7c-9.9-4-20.3-6.5-30.9-7.5c-1.6-0.1-2.9,0.9-3.2,2.4c0,0,0,0,0,0.1L64,82.2l-6.8-41.5c0,0,0,0,0-0.1
		c-0.3-1.5-1.7-2.6-3.2-2.4c-10.6,1-20.9,3.5-30.9,7.5c-0.8,0.3-1.5,1-1.7,1.9c-0.3,0.9-0.2,1.8,0.3,2.5l5.3,8.3
		c0.6,0.9,1.5,1.4,2.5,1.4c0.6,0,1.1-0.2,1.6-0.5c1.4-0.9,1.8-2.7,0.9-4.1l-3.3-5.2c7.5-2.7,15.2-4.5,23-5.5l9.3,56.7
		c0.2,1.5,1.5,2.5,3,2.5c0.2,0,0.3,0,0.5,0c1.3-0.2,2.2-1.2,2.5-2.4c0,0,0,0,0,0l9.3-56.7c7.8,0.9,15.5,2.8,23,5.5l-3.3,5.2
		c-0.9,1.4-0.5,3.3,0.9,4.1c0.5,0.3,1.1,0.5,1.6,0.5c1,0,2-0.5,2.5-1.4l5.3-8.3c0.5-0.8,0.6-1.7,0.3-2.5
		C106.4,46.7,105.7,46,104.9,45.7z"/>
</g>
</svg>